<?xml version="1.0" encoding="UTF-8"?>
<svg width="59px" height="40px" viewBox="0 0 59 40" version="1.1" xmlns="http://www.w3.org/2000/svg" xmlns:xlink="http://www.w3.org/1999/xlink">
    <!-- Generator: Sketch 51.3 (57544) - http://www.bohemiancoding.com/sketch -->
    <title>logo</title>
    <desc>Created with Sketch.</desc>
    <defs></defs>
    <g id="Page-1" stroke="none" stroke-width="1" fill="none" fill-rule="evenodd">
        <g id="logo" fill-rule="nonzero">
            <path d="M18.3185629,20.6347305 L7.77964072,20.6347305 C7.54011976,20.6347305 7.3245509,20.6491018 7.10179641,20.6682635 L7.10179641,3.56167665 C7.10179643,2.29306289 6.42499906,1.12081543 5.32634732,0.486508552 C4.22769559,-0.14779833 2.87410082,-0.14779833 1.77544909,0.486508552 C0.676797351,1.12081543 -1.89038179e-08,2.29306289 0,3.56167665 L0,32.0646707 C0.0131575103,36.3501058 3.48462085,39.8204991 7.77005988,39.8323353 L18.308982,39.8323353 C22.5940298,39.8204927 26.064804,36.3497184 26.0766467,32.0646707 L26.0766467,28.4047904 C26.0648401,24.1230742 22.6002558,20.6531416 18.3185629,20.6347305 Z M18.994012,31.6383234 C18.9900679,32.8603108 18.0004306,33.8499482 16.7784431,33.8538922 L9.30778443,33.8538922 C8.08633991,33.8486443 7.09746352,32.8597679 7.09221557,31.6383234 L7.09221557,27.2023952 L16.7784431,27.2023952 C18.000975,27.20503 18.9913772,28.1954322 18.994012,29.4179641 L18.994012,31.6383234 Z" id="Shape" fill="#ED247E"></path>
            <path d="M3.28383234,20.6682635 L3.26467066,20.6682635 C1.46164284,20.6682635 2.20807225e-16,22.1299063 0,23.9329341 C-2.20807225e-16,25.7359619 1.46164284,27.1976048 3.26467066,27.1976048 L7.09700599,27.1976048 L7.09700599,20.6682635 L3.28383234,20.6682635 Z" id="Shape" fill="#981B38"></path>
            <path d="M31.291018,0.0383233533 C29.4823502,0.285867175 28.1411801,1.84166553 28.1628743,3.66706587 L28.1628743,12.2419162 C28.1638077,12.2459429 28.1625988,12.2501663 28.1596759,12.2530891 C28.1567531,12.2560119 28.1525297,12.2572209 28.148503,12.2562874 L18.4790419,12.2562874 C17.257442,12.2536582 16.2674236,11.2647102 16.2634731,10.0431138 L16.2634731,4.00239521 C16.2853232,2.17779143 14.9454396,0.622294422 13.1377246,0.373652695 C12.1317553,0.256263037 11.123481,0.573580166 10.3660543,1.2459336 C9.60862754,1.91828704 9.17398604,2.88181912 9.17125749,3.89461078 L9.17125749,11.039521 C9.18309388,15.332897 12.6599212,18.8107945 16.9532934,18.8239521 L26.0862275,18.8239521 C28.1628743,18.8239521 28.1628743,20.8215569 28.1628743,21.1904192 L28.1628743,33.4467066 C28.157312,34.7140368 28.8282849,35.8880656 29.9230439,36.5265477 C31.0178029,37.1650298 32.3700281,37.1709646 33.4703493,36.5421166 C34.5706706,35.9132685 35.2519228,34.7451745 35.257485,33.4778443 L35.257485,3.56167665 C35.254674,2.54872176 34.8201038,1.58501791 34.0627819,0.912300234 C33.30546,0.239582555 32.297238,-0.0783242858 31.291018,0.0383233533 Z" id="Shape" fill="#36A9DB"></path>
            <path d="M31.7101796,39.8275449 C29.760479,39.8275449 28.1628743,38.0598802 28.1628743,35.8994012 L28.1628743,12.2562874 C28.1628743,12.2562874 35.257485,12.2562874 35.257485,19.4634731 L35.257485,35.8994012 C35.257485,38.0598802 33.6598802,39.8275449 31.7101796,39.8275449 Z" id="Shape" fill="#2288C6"></path>
            <path d="M54.2874251,0.0239520958 C52.4783863,0.27260846 51.1374414,1.82917234 51.1592814,3.65508982 L51.1592814,16.3497006 C51.1592814,16.3589605 51.1517748,16.3664671 51.142515,16.3664671 L46.3353293,16.3664671 C45.3101301,16.3664671 44.4790419,15.5353789 44.4790419,14.5101796 L44.4790419,8.58682635 C44.5008819,6.76090886 43.1599371,5.20434499 41.3508982,4.95568862 C40.3450645,4.8397765 39.3375013,5.15801716 38.5807312,5.83065086 C37.8239612,6.50328456 37.3897149,7.46655553 37.3868263,8.47904192 L37.3868263,36.1892216 C37.3651322,38.0146219 38.7063023,39.5704203 40.5149701,39.8179641 C41.5205531,39.9346175 42.5281684,39.6169661 43.285043,38.9446968 C44.0419177,38.2724274 44.4762353,37.3093288 44.4790419,36.297006 L44.4790419,23.4730539 C44.4802415,23.4647397 44.4874086,23.4585965 44.4958084,23.4586826 L49.4203593,23.4586826 C50.3807395,23.4586826 51.1592814,24.2372246 51.1592814,25.1976048 L51.1592814,30.491018 C51.1375873,32.3164183 52.4787574,33.8722167 54.2874251,34.1197605 C55.2930082,34.2364139 56.3006234,33.9187625 57.0574981,33.2464932 C57.8143728,32.5742239 58.2486904,31.6111252 58.251497,30.5988024 L58.251497,3.53293413 C58.244537,2.52295807 57.8085316,1.5635634 57.0522631,0.894117292 C56.2959946,0.224671186 55.2907825,-0.0916947855 54.2874251,0.0239520958 Z" id="Shape" fill="#8DC541"></path>
            <path d="M54.7041916,39.8419162 C52.754491,39.8419162 51.1592814,38.457485 51.1592814,36.297006 L51.1592814,16.3760479 C51.1592814,16.3760479 58.251497,16.3760479 58.251497,23.5808383 L58.251497,36.297006 C58.251497,38.457485 56.6562874,39.8419162 54.7041916,39.8419162 Z" id="Shape" fill="#46B34D"></path>
            <path d="M40.9317365,0 C42.8742515,0 44.4790419,1.51137725 44.4790419,3.67185629 L44.4790419,23.4730539 C44.4790419,23.4730539 37.3868263,23.4730539 37.3868263,16.2658683 L37.3868263,3.54730539 C37.3868263,1.38682635 38.9820359,0 40.9317365,0 Z" id="Shape" fill="#46B34D"></path>
        </g>
    </g>
</svg>